<svg width="38" height="40" viewBox="0 0 38 40" fill="none" xmlns="http://www.w3.org/2000/svg">
<rect x="0.583252" y="0.585571" width="37.4167" height="39" rx="10" fill="#1E1E1E"/>
<path d="M27.9999 14.1481C27.9999 13.4922 27.4683 12.9606 26.8124 12.9606H23.8231C23.3229 11.5414 21.9838 10.5904 20.4791 10.5856H18.1041C16.5993 10.5904 15.2603 11.5414 14.7601 12.9606H11.7708C11.1149 12.9606 10.5833 13.4922 10.5833 14.1481C10.5833 14.8039 11.1149 15.3356 11.7708 15.3356H12.1666V25.2314C12.1666 27.6361 14.116 29.5856 16.5208 29.5856H22.0624C24.4672 29.5856 26.4166 27.6361 26.4166 25.2314V15.3356H26.8124C27.4683 15.3356 27.9999 14.8039 27.9999 14.1481ZM24.0416 25.2314C24.0416 26.3245 23.1555 27.2106 22.0624 27.2106H16.5208C15.4277 27.2106 14.5416 26.3245 14.5416 25.2314V15.3356H24.0416V25.2314Z" fill="#616161"/>
<path d="M17.3123 24.8356C17.9681 24.8356 18.4998 24.3039 18.4998 23.6481V18.8981C18.4998 18.2422 17.9681 17.7106 17.3123 17.7106C16.6564 17.7106 16.1248 18.2422 16.1248 18.8981V23.6481C16.1248 24.3039 16.6564 24.8356 17.3123 24.8356Z" fill="#616161"/>
<path d="M21.2708 24.8356C21.9266 24.8356 22.4583 24.3039 22.4583 23.6481V18.8981C22.4583 18.2422 21.9266 17.7106 21.2708 17.7106C20.6149 17.7106 20.0833 18.2422 20.0833 18.8981V23.6481C20.0833 24.3039 20.6149 24.8356 21.2708 24.8356Z" fill="#616161"/>
</svg>
