<svg width="24" height="25" viewBox="0 0 24 25" fill="none" xmlns="http://www.w3.org/2000/svg">
<g clip-path="url(#clip0_3_267)">
<path d="M24 11.8316C23.855 9.49195 23.0285 7.24589 21.6225 5.37026C20.2165 3.49463 18.2924 2.07143 16.0873 1.27607C13.8822 0.480722 11.4926 0.34799 9.21305 0.89424C6.93348 1.44049 4.86356 2.64184 3.25846 4.35021C1.65337 6.05859 0.583248 8.1993 0.18002 10.5085C-0.223208 12.8176 0.0580794 15.1943 0.989209 17.3456C1.92034 19.4968 3.46061 21.3286 5.42015 22.6151C7.3797 23.9016 9.67287 24.5865 12.017 24.5856H18.5C19.9581 24.5837 21.356 24.0037 22.387 22.9726C23.4181 21.9416 23.9981 20.5437 24 19.0856V11.9256V11.8316ZM21 19.0856C21 19.7486 20.7366 20.3845 20.2677 20.8533C19.7989 21.3222 19.163 21.5856 18.5 21.5856H12.017C10.7464 21.5848 9.49034 21.3163 8.33056 20.7975C7.17078 20.2787 6.13338 19.5212 5.28598 18.5746C4.43483 17.6286 3.79579 16.5116 3.41169 15.2984C3.0276 14.0853 2.90734 12.804 3.05898 11.5406C3.29824 9.54875 4.1934 7.69314 5.60342 6.2661C7.01344 4.83906 8.85817 3.92171 10.847 3.65857C11.2361 3.61001 11.6278 3.58563 12.02 3.58557C14.1161 3.57957 16.1476 4.3109 17.759 5.65157C18.6984 6.43188 19.4699 7.39447 20.0269 8.48122C20.5839 9.56797 20.915 10.7563 21 11.9746V19.0856Z" fill="#FDF0D5"/>
<path d="M9.5 11.5856H12.5C12.8978 11.5856 13.2794 11.4275 13.5607 11.1462C13.842 10.8649 14 10.4834 14 10.0856C14 9.68775 13.842 9.30622 13.5607 9.02491C13.2794 8.74361 12.8978 8.58557 12.5 8.58557H9.5C9.10218 8.58557 8.72064 8.74361 8.43934 9.02491C8.15804 9.30622 8 9.68775 8 10.0856C8 10.4834 8.15804 10.8649 8.43934 11.1462C8.72064 11.4275 9.10218 11.5856 9.5 11.5856Z" fill="#FDF0D5"/>
<path d="M16.5 13.5856H9.5C9.10218 13.5856 8.72064 13.7436 8.43934 14.0249C8.15804 14.3062 8 14.6877 8 15.0856C8 15.4834 8.15804 15.8649 8.43934 16.1462C8.72064 16.4275 9.10218 16.5856 9.5 16.5856H16.5C16.8978 16.5856 17.2794 16.4275 17.5607 16.1462C17.842 15.8649 18 15.4834 18 15.0856C18 14.6877 17.842 14.3062 17.5607 14.0249C17.2794 13.7436 16.8978 13.5856 16.5 13.5856Z" fill="#FDF0D5"/>
</g>
<defs>
<clipPath id="clip0_3_267">
<rect width="24" height="24" fill="white" transform="translate(0 0.585571)"/>
</clipPath>
</defs>
</svg>
