<svg width="16" height="16" viewBox="0 0 16 16" fill="none" xmlns="http://www.w3.org/2000/svg">
<g clip-path="url(#clip0_34_79)">
<path d="M11.3334 9.33333C11.3334 9.51014 11.2631 9.67971 11.1381 9.80474C11.0131 9.92976 10.8435 10 10.6667 10H5.33337C5.15656 10 4.98699 9.92976 4.86197 9.80474C4.73695 9.67971 4.66671 9.51014 4.66671 9.33333C4.66671 9.15652 4.73695 8.98695 4.86197 8.86193C4.98699 8.73691 5.15656 8.66667 5.33337 8.66667H10.6667C10.8435 8.66667 11.0131 8.73691 11.1381 8.86193C11.2631 8.98695 11.3334 9.15652 11.3334 9.33333ZM8.66671 11.3333H5.33337C5.15656 11.3333 4.98699 11.4036 4.86197 11.5286C4.73695 11.6536 4.66671 11.8232 4.66671 12C4.66671 12.1768 4.73695 12.3464 4.86197 12.4714C4.98699 12.5964 5.15656 12.6667 5.33337 12.6667H8.66671C8.84352 12.6667 9.01309 12.5964 9.13811 12.4714C9.26314 12.3464 9.33337 12.1768 9.33337 12C9.33337 11.8232 9.26314 11.6536 9.13811 11.5286C9.01309 11.4036 8.84352 11.3333 8.66671 11.3333ZM14.6667 6.99V12.6667C14.6657 13.5504 14.3141 14.3976 13.6892 15.0225C13.0643 15.6474 12.2171 15.9989 11.3334 16H4.66671C3.78298 15.9989 2.93575 15.6474 2.31085 15.0225C1.68596 14.3976 1.33443 13.5504 1.33337 12.6667V3.33333C1.33443 2.4496 1.68596 1.60237 2.31085 0.97748C2.93575 0.352588 3.78298 0.00105868 4.66671 1.06995e-07H7.67671C8.28979 -0.00157784 8.8971 0.118392 9.46352 0.352973C10.03 0.587554 10.5443 0.932092 10.9767 1.36667L13.2994 3.69067C13.7342 4.12283 14.079 4.63697 14.3137 5.20332C14.5484 5.76966 14.6684 6.37695 14.6667 6.99ZM10.034 2.30933C9.82423 2.10611 9.58866 1.93128 9.33337 1.78933V4.66667C9.33337 4.84348 9.40361 5.01305 9.52864 5.13807C9.65366 5.2631 9.82323 5.33333 10 5.33333H12.8774C12.7353 5.07813 12.5603 4.84276 12.3567 4.63333L10.034 2.30933ZM13.3334 6.99C13.3334 6.88 13.312 6.77467 13.302 6.66667H10C9.46961 6.66667 8.9609 6.45595 8.58583 6.08088C8.21075 5.70581 8.00004 5.1971 8.00004 4.66667V1.36467C7.89204 1.35467 7.78604 1.33333 7.67671 1.33333H4.66671C4.13627 1.33333 3.62757 1.54405 3.25249 1.91912C2.87742 2.29419 2.66671 2.8029 2.66671 3.33333V12.6667C2.66671 13.1971 2.87742 13.7058 3.25249 14.0809C3.62757 14.456 4.13627 14.6667 4.66671 14.6667H11.3334C11.8638 14.6667 12.3725 14.456 12.7476 14.0809C13.1227 13.7058 13.3334 13.1971 13.3334 12.6667V6.99Z" fill="#FDF0D5"/>
</g>
<defs>
<clipPath id="clip0_34_79">
<rect width="16" height="16" fill="white"/>
</clipPath>
</defs>
</svg>
