<svg width="24" height="24" viewBox="0 0 24 24" fill="none" xmlns="http://www.w3.org/2000/svg">
<g clip-path="url(#clip0_9_1174)">
<path d="M8.00143 21H3.41045C3.18479 20.9994 3.00198 20.8167 3.00146 20.591V3.40898C3.00203 3.18333 3.18479 3.00052 3.41045 3H8.00143C8.82986 3 9.50143 2.32842 9.50143 1.5C9.50143 0.671578 8.82986 0 8.00143 0H3.41045C1.52861 0.00220313 0.00366797 1.52719 0.00146484 3.40898V20.591C0.00366797 22.4728 1.52861 23.9978 3.41045 24H8.00143C8.82986 24 9.50143 23.3284 9.50143 22.5C9.50143 21.6716 8.82986 21 8.00143 21Z" fill="#FDF0D5"/>
<path d="M22.6835 8.81799L18.8015 4.93899C18.2155 4.35328 17.2657 4.35352 16.6799 4.9395C16.0942 5.52549 16.0945 6.47532 16.6805 7.06102L20.0924 10.472L6.50146 10.5C5.67304 10.5 5.00146 11.1716 5.00146 12C5.00146 12.8284 5.67304 13.5 6.50146 13.5L20.1475 13.475L16.6805 16.942C16.116 17.5484 16.15 18.4975 16.7563 19.062C17.3326 19.5985 18.2257 19.5981 18.8015 19.061L22.6805 15.182C24.4379 13.4247 24.4379 10.5754 22.6805 8.81808L22.6805 8.81803L22.6835 8.81799Z" fill="#FDF0D5"/>
</g>
<defs>
<clipPath id="clip0_9_1174">
<rect width="24" height="24" fill="white"/>
</clipPath>
</defs>
</svg>
