<svg width="24" height="24" viewBox="0 0 24 24" fill="none" xmlns="http://www.w3.org/2000/svg">
<g clip-path="url(#clip0_1_5)">
<path d="M22.9995 1.00171C22.1726 0.163235 20.9667 -0.180543 19.822 0.0958389L4.53619 3.30837C1.63336 3.73792 -0.371619 6.43936 0.0579285 9.34214C0.22492 10.4707 0.750735 11.5155 1.55757 12.3221L3.19632 13.9619C3.27304 14.0375 3.31593 14.141 3.31532 14.2488V17.2724C3.31752 19.1534 4.84181 20.6777 6.72282 20.6799H9.74639C9.85433 20.6799 9.9579 20.7227 10.0343 20.7989L11.6731 22.4376C12.664 23.4351 14.0116 23.9964 15.4175 23.9974C15.9979 23.9969 16.5744 23.902 17.1243 23.7164C19.022 23.0862 20.401 21.4382 20.6868 19.4591L23.8993 4.22127C24.1879 3.06447 23.846 1.84121 22.9995 1.00171ZM3.12138 7.8267C3.39312 6.98715 4.12642 6.38091 5.0021 6.27195C5.03744 6.26726 5.07241 6.26126 5.10709 6.25395L18.4272 3.45437L6.31493 15.5596V14.2488C6.31713 13.3445 5.957 12.477 5.31509 11.8401L3.67831 10.2014C3.04789 9.58478 2.83079 8.65932 3.12138 7.8267ZM17.7413 18.8931C17.7332 18.9281 17.7283 18.9631 17.7233 18.9981C17.5496 20.2646 16.3822 21.1506 15.1157 20.9769C14.6153 20.9083 14.1511 20.678 13.7938 20.3209L12.1561 18.6832C11.5189 18.0411 10.651 17.681 9.74643 17.6833H8.43562L20.5449 5.57108L17.7413 18.8931Z" fill="#FDF0D5"/>
</g>
<defs>
<clipPath id="clip0_1_5">
<rect width="24" height="24" fill="white"/>
</clipPath>
</defs>
</svg>
